HIERARCHY
ROOT hip
{
	OFFSET 0.000000 0.000000 0.000000 
	CHANNELS 6 Xposition Yposition Zposition Xrotation Zrotation Yrotation
	JOINT abdomen
	{
		OFFSET 0.000000 3.402643 0.000000 
		CHANNELS 3 Xrotation Zrotation Yrotation
		JOINT chest
		{
			OFFSET 0.000000 8.438565 -0.680529 
			CHANNELS 3 Xrotation Zrotation Yrotation
			JOINT neck
			{
				OFFSET 0.000000 10.207942 -0.272212 
				CHANNELS 3 Xrotation Zrotation Yrotation
				JOINT head
				{
					OFFSET 0.000000 3.130431 0.000000 
					CHANNELS 3 Xrotation Zrotation Yrotation
					End Site
					{
						OFFSET 0.000000 3.130435 0.000000 
					}
				}
			}
			JOINT lCollar
			{
				OFFSET 3.470700 6.669187 -0.816635 
				CHANNELS 3 Zrotation Yrotation Xrotation
				JOINT lShldr
				{
					OFFSET 3.198488 0.000000 0.000000 
					CHANNELS 3 Zrotation Yrotation Xrotation
					JOINT lForeArm
					{
						OFFSET 10.139888 0.000000 0.000000 
						CHANNELS 3 Yrotation Zrotation Xrotation
						JOINT lHand
						{
							OFFSET 8.370511 0.000000 0.000000 
							CHANNELS 3 Zrotation Yrotation Xrotation
							End Site
							{
								OFFSET 4.083176 0.000000 0.000000 
							}
						}
					}
				}
			}
			JOINT rCollar
			{
				OFFSET -3.470700 6.669187 -0.816635 
				CHANNELS 3 Zrotation Yrotation Xrotation
				JOINT rShldr
				{
					OFFSET -3.198488 0.000000 0.000000 
					CHANNELS 3 Zrotation Yrotation Xrotation
					JOINT rForeArm
					{
						OFFSET -10.139888 0.000000 0.000000 
						CHANNELS 3 Yrotation Zrotation Xrotation
						JOINT rHand
						{
							OFFSET -8.370511 0.000000 0.000000 
							CHANNELS 3 Zrotation Yrotation Xrotation
							End Site
							{
								OFFSET -4.083176 0.000000 0.000000 
							}
						}
					}
				}
			}
		}
	}
	JOINT lThigh
	{
		OFFSET 5.308129 -1.633274 1.361059 
		CHANNELS 3 Xrotation Zrotation Yrotation
		JOINT lShin
		{
			OFFSET -2.041588 -20.007561 0.000000 
			CHANNELS 3 Xrotation Zrotation Yrotation
			JOINT lFoot
			{
				OFFSET 0.000000 -19.190928 -1.224953 
				CHANNELS 3 Xrotation Yrotation Zrotation
				End Site
				{
					OFFSET 0.000000 -2.449906 4.627600 
				}
			}
		}
	}
	JOINT rThigh
	{
		OFFSET -5.308129 -1.633274 1.361059 
		CHANNELS 3 Xrotation Zrotation Yrotation
		JOINT rShin
		{
			OFFSET 2.041588 -20.007561 0.000000 
			CHANNELS 3 Xrotation Zrotation Yrotation
			JOINT rFoot
			{
				OFFSET 0.000000 -19.190928 -1.224953 
				CHANNELS 3 Xrotation Yrotation Zrotation
				End Site
				{
					OFFSET 0.000000 -2.449906 4.627600 
				}
			}
		}
	}
}
MOTION
Frames: 15
Frame Time: 0.016667
-0.325697 53.277813 -5.178345 -10.721076 0.712889 0.127065 28.260241 -0.359217 -1.539531 -0.363762 3.236739 -4.995408 3.882344 -1.362839 -0.129773 26.580786 -5.433017 2.795655 -8.842496 -10.543847 1.179529 -65.576233 9.751158 -16.340807 -22.021767 -5.000000 32.405075 -25.507442 -10.140830 17.255182 11.479360 8.601689 1.127653 62.602829 -3.754191 -8.398774 22.927118 5.000000 24.097164 21.945967 -10.008064 -5.633695 18.410240 6.541652 6.848309 8.844584 -3.749646 -0.733891 -15.653060 6.389088 -3.151147 15.161094 -4.460095 10.920605 1.745507 4.582460 0.248578 -5.696020 -16.948736 4.916372 
-0.223865 53.274979 -5.212326 -10.718427 0.751941 0.322366 28.357252 -0.465113 -1.649158 -0.388264 3.236447 -5.122221 3.802751 -1.162424 -0.110705 26.331249 -5.297270 2.608193 -8.643860 -10.538158 1.152417 -65.682442 9.423427 -15.887437 -22.141735 -5.000000 31.876205 -25.432306 -10.083680 17.120655 11.499139 8.660434 1.146371 62.652443 -3.822776 -8.506138 22.819510 5.000000 24.108551 21.484861 -10.083772 -5.719221 18.786274 6.483870 6.531155 7.919487 -3.873320 -0.684163 -15.337270 6.470206 -3.056011 14.912066 -4.579897 10.740273 2.294001 4.695228 0.281647 -6.239849 -16.927759 4.875219 
-0.059264 53.284039 -5.312480 -10.516558 0.878840 0.703342 28.417852 -0.659828 -1.920417 -0.396741 3.275069 -5.288612 3.527872 -0.931580 -0.086354 25.909260 -5.034941 2.322659 -8.464534 -10.512669 1.123311 -65.689835 8.842168 -15.105084 -22.385439 -5.000000 30.983335 -25.303570 -10.123474 16.966995 11.576557 8.661246 1.142481 62.682198 -3.803662 -8.515554 22.624361 5.000000 24.038771 20.812143 -10.252417 -5.832055 18.847639 6.306759 5.920390 6.952507 -4.008129 -0.639846 -14.898285 6.615633 -2.856596 14.021395 -4.822717 10.365344 3.677309 4.993901 0.463527 -7.076416 -17.002747 4.854665 
0.147180 53.301014 -5.456746 -10.162868 1.064211 1.221037 28.452860 -0.926967 -2.294643 -0.388309 3.352654 -5.474534 3.135989 -0.670307 -0.056718 25.366766 -4.674984 1.969093 -8.295156 -10.486895 1.097428 -65.635307 8.075672 -14.093410 -22.692827 -5.000000 29.868093 -25.135777 -10.232592 16.796795 11.673832 8.613445 1.137467 62.691971 -3.726046 -8.446706 22.367720 5.000000 23.925652 19.988771 -10.483843 -5.938340 18.729664 6.074550 5.110977 5.901077 -4.185149 -0.588913 -14.404236 6.764640 -2.616473 12.693233 -5.173720 9.872809 5.663583 5.465971 0.756841 -8.073334 -17.203190 4.828141 
0.355305 53.317429 -5.610049 -9.817521 1.220172 1.689902 28.519234 -1.156406 -2.654598 -0.357511 3.391266 -5.631185 2.725094 -0.429805 -0.033810 24.798979 -4.334199 1.625313 -8.145385 -10.450999 1.072878 -65.580566 7.289419 -13.101631 -23.028458 -5.000000 28.737267 -24.957399 -10.311152 16.573082 11.772029 8.575367 1.151989 62.721695 -3.609729 -8.367729 22.119667 5.000000 23.809528 19.236561 -10.722573 -6.056466 18.555595 5.848313 4.335280 4.976588 -4.305979 -0.522819 -13.988002 6.977372 -2.416134 11.210690 -5.575230 9.376939 7.840519 5.984408 1.096186 -9.027884 -17.325186 4.818658 
0.570159 53.331554 -5.799492 -9.428275 1.288298 1.973255 28.702845 -1.218661 -2.894418 -0.243168 3.293853 -5.630644 2.256028 -0.240503 -0.022913 24.065836 -4.002797 1.350504 -8.025395 -10.414490 1.050536 -65.439758 6.456425 -12.164680 -23.498085 -5.000000 27.581228 -24.693882 -10.337729 16.092150 11.811251 8.575758 1.159798 62.821430 -3.396803 -8.297436 21.952866 5.000000 23.725218 18.735703 -11.044918 -6.210963 18.115122 5.682199 3.628332 4.504193 -4.457979 -0.490615 -13.830771 7.301321 -2.495540 9.160087 -6.053453 8.798244 10.916576 6.821246 1.721135 -9.853978 -17.438049 4.840373 
0.785012 53.345699 -5.988942 -9.048507 1.346612 2.256613 28.877497 -1.280079 -3.133829 -0.119727 3.206182 -5.620903 1.787114 -0.040084 -0.003819 23.330132 -3.671240 1.066021 -7.905437 -10.377927 1.030115 -65.313660 5.615094 -11.222862 -23.958366 -5.000000 26.441130 -24.444017 -10.350116 15.631868 11.860147 8.576254 1.167122 62.921001 -3.183925 -8.217939 21.783878 5.000000 23.647175 18.226437 -11.371993 -6.357983 17.700825 5.526519 2.916416 4.017776 -4.633725 -0.436546 -13.686041 7.653728 -2.560423 7.104396 -6.537053 8.266007 14.009312 7.612949 2.360240 -10.728572 -17.605644 4.828341 
0.968175 53.364368 -6.173813 -8.718971 1.209882 2.393282 29.173616 -1.153701 -3.263870 0.017262 3.108968 -5.513051 1.269529 0.038623 -0.005844 22.652916 -3.358970 0.890006 -8.036316 -10.452991 1.057162 -64.936783 5.023829 -10.620567 -24.643984 -5.000000 25.413883 -24.204996 -10.291553 14.984620 11.947657 8.635737 1.182445 62.932838 -3.018232 -8.187679 21.751465 5.000000 23.589638 18.140539 -11.756080 -6.326519 17.342093 5.546911 2.650455 3.580339 -4.810338 -0.433660 -13.356175 7.675695 -2.339818 4.921943 -6.854644 7.747437 17.159517 8.356332 3.131749 -10.688327 -17.936865 5.377340 
1.143417 53.384174 -6.357553 -8.393367 1.014666 2.490709 29.477266 -0.964894 -3.388524 0.143643 3.021482 -5.385678 0.751958 0.088363 -0.003477 21.981981 -3.046619 0.743215 -8.217379 -10.546371 1.095468 -64.481293 4.496480 -10.090769 -25.390642 -5.000000 24.421213 -23.980991 -10.214666 14.315770 12.045129 8.714836 1.207103 62.915733 -2.851976 -8.177197 21.751789 5.000000 23.544968 18.165586 -12.141279 -6.243172 16.980732 5.585648 2.478188 3.179157 -4.945889 -0.441977 -13.002325 7.705282 -2.007584 2.714787 -7.135740 7.246274 20.321484 9.039097 3.946433 -10.447462 -18.375353 6.045744 
1.296036 53.413025 -6.516395 -8.165697 0.809682 2.646772 29.886841 -0.786743 -3.465499 0.257341 2.953380 -5.326634 0.214848 0.088363 -0.003477 21.335827 -2.743962 0.654949 -8.488680 -10.666827 1.150314 -63.945992 4.014846 -9.643748 -26.001240 -5.000000 23.672468 -23.773447 -10.267102 13.661140 12.142606 8.745146 1.221853 62.899151 -2.685577 -8.196013 21.671965 5.000000 23.719395 18.215113 -12.416125 -6.081693 16.697567 5.722958 2.305194 2.860206 -5.126181 -0.465811 -12.678659 7.704740 -1.973820 0.781617 -7.331845 6.476997 23.101652 9.466839 4.640708 -10.013063 -18.693581 6.845584 
1.414723 53.455444 -6.637903 -8.066053 0.585187 2.900638 30.431263 -0.597708 -3.496609 0.346646 2.914330 -5.385206 -0.351563 0.019311 -0.002922 20.732759 -2.460767 0.674045 -8.890132 -10.813199 1.227958 -63.275742 3.610467 -9.318982 -26.417345 -5.000000 23.257381 -23.595026 -10.499213 13.022268 12.269333 8.707458 1.225174 62.864529 -2.489285 -8.273852 21.453943 5.000000 24.224163 18.333693 -12.499011 -5.838259 16.538824 5.936491 2.105693 2.566809 -5.301513 -0.481348 -12.403115 7.874017 -2.253882 -0.701414 -7.363926 5.236889 25.313936 9.536771 5.106211 -9.440414 -18.949944 7.731697 
1.533412 53.497860 -6.759410 -7.978164 0.360781 3.154419 30.965353 -0.409177 -3.526143 0.436467 2.875312 -5.443790 -0.908197 -0.059395 -0.000900 20.130373 -2.167814 0.683843 -9.292038 -10.958868 1.307653 -62.595139 3.201007 -9.004293 -26.824701 -5.000000 22.848070 -23.427647 -10.731588 12.394750 12.386898 8.669647 1.238735 62.839680 -2.293145 -8.351168 21.244099 5.000000 24.726105 18.449915 -12.586300 -5.586251 16.372881 6.161254 1.917774 2.302099 -5.475469 -0.527763 -12.130703 8.011397 -2.550530 -2.186208 -7.438530 3.987681 27.487402 9.564534 5.608849 -8.844220 -19.160721 8.642290 
1.598396 53.540272 -6.813056 -7.691561 0.204632 3.779343 31.183563 -0.237493 -3.659239 0.447319 2.864974 -5.658889 -1.230420 -0.158874 -0.005620 19.711502 -1.962833 0.439530 -9.414629 -11.062159 1.342985 -62.357258 2.797868 -8.602670 -26.681955 -5.000000 22.561049 -23.435730 -10.446375 12.166415 12.338024 8.620329 1.221493 63.019150 -2.392056 -8.653330 21.065754 5.000000 25.322355 18.740883 -12.777769 -5.262159 16.006769 6.354665 1.537490 2.088657 -5.487333 -0.411812 -12.031874 7.752713 -2.655302 -3.093103 -7.406342 1.786045 28.096334 9.076948 5.439458 -9.127759 -18.435482 8.701468 
1.663380 53.582676 -6.866696 -7.398594 0.048684 4.404304 31.400576 -0.056662 -3.788480 0.459392 2.844899 -5.863750 -1.552646 -0.247237 -0.002142 19.300648 -1.757802 0.195221 -9.537336 -11.165340 1.376875 -62.120796 2.396412 -8.212881 -26.528292 -5.000000 22.277035 -23.442221 -10.156495 11.925000 12.289041 8.580779 1.204284 63.218094 -2.471827 -8.935317 20.896444 5.000000 25.910810 19.028372 -12.976529 -4.929423 15.642489 6.582160 1.161686 1.880754 -5.520626 -0.316159 -11.938561 7.492439 -2.738799 -4.011613 -7.398783 -0.414436 28.700619 8.588344 5.271355 -9.375159 -17.709587 8.777588 
1.709707 53.626774 -6.876243 -7.093564 -0.155667 4.951180 31.551153 0.117374 -3.841843 0.495838 2.854508 -5.942311 -1.865097 -0.345255 0.002794 18.881296 -1.591791 -0.156461 -9.517462 -11.165807 1.374101 -62.180321 1.940216 -7.731847 -26.216818 -5.000000 21.936779 -23.625620 -9.589086 12.017070 12.181800 8.462516 1.170229 63.427631 -2.638945 -9.344656 20.749985 5.000000 26.503397 19.395149 -13.262564 -4.539611 15.360501 6.816344 0.934422 1.579732 -5.512995 -0.309623 -11.966405 7.240299 -2.799174 -4.684720 -7.339025 -1.931357 28.357189 8.329491 4.996199 -9.477342 -17.572140 9.060852 
